<?xml version="1.0" encoding="UTF-8"?>
<!DOCTYPE svg PUBLIC "-//W3C//DTD SVG 1.1//EN" "http://www.w3.org/Graphics/SVG/1.1/DTD/svg11.dtd">
<svg xmlns="http://www.w3.org/2000/svg" version="1.1" width="1024px" height="1024px" style="shape-rendering:geometricPrecision; text-rendering:geometricPrecision; image-rendering:optimizeQuality; fill-rule:evenodd; clip-rule:evenodd" xmlns:xlink="http://www.w3.org/1999/xlink">
<g><path style="opacity:1" fill="#141817" d="M -0.5,-0.5 C 339.167,-0.5 678.833,-0.5 1018.5,-0.5C 1018.25,1.17028 1017.58,2.67028 1016.5,4C 1013.52,4.49796 1010.52,4.66463 1007.5,4.5C 1007.5,5.5 1007.5,6.5 1007.5,7.5C 1004.83,7.5 1002.17,7.5 999.5,7.5C 999.5,10.1667 999.5,12.8333 999.5,15.5C 1000.5,15.5 1001.5,15.5 1002.5,15.5C 1002.5,20.8333 1002.5,26.1667 1002.5,31.5C 1003.5,31.5 1004.5,31.5 1005.5,31.5C 1005.17,26.1254 1005.51,20.7921 1006.5,15.5C 1007.5,23.4723 1007.83,31.4723 1007.5,39.5C 1008.5,39.5 1009.5,39.5 1010.5,39.5C 1010.21,47.8681 1011.21,55.8681 1013.5,63.5C 1011.5,63.5 1009.5,63.5 1007.5,63.5C 1007.5,287.5 1007.5,511.5 1007.5,735.5C 1008.5,735.5 1009.5,735.5 1010.5,735.5C 1010.5,762.167 1010.5,788.833 1010.5,815.5C 1009.5,815.5 1008.5,815.5 1007.5,815.5C 1007.5,863.5 1007.5,911.5 1007.5,959.5C 1009.47,959.261 1011.3,959.594 1013,960.5C 1013.5,968.151 1013.66,975.818 1013.5,983.5C 1012.5,983.5 1011.5,983.5 1010.5,983.5C 1010.5,986.167 1010.5,988.833 1010.5,991.5C 1009.5,991.5 1008.5,991.5 1007.5,991.5C 1007.5,999.5 1007.5,1007.5 1007.5,1015.5C 1004.83,1015.5 1002.17,1015.5 999.5,1015.5C 999.5,1018.17 999.5,1020.83 999.5,1023.5C 666.167,1023.5 332.833,1023.5 -0.5,1023.5C -0.5,682.167 -0.5,340.833 -0.5,-0.5 Z"/></g>
<g><path style="opacity:1" fill="#141917" d="M 1018.5,-0.5 C 1020.17,-0.5 1021.83,-0.5 1023.5,-0.5C 1023.5,340.833 1023.5,682.167 1023.5,1023.5C 1015.5,1023.5 1007.5,1023.5 999.5,1023.5C 999.5,1020.83 999.5,1018.17 999.5,1015.5C 1002.17,1015.5 1004.83,1015.5 1007.5,1015.5C 1007.5,1007.5 1007.5,999.5 1007.5,991.5C 1008.5,991.5 1009.5,991.5 1010.5,991.5C 1010.5,988.833 1010.5,986.167 1010.5,983.5C 1011.5,983.5 1012.5,983.5 1013.5,983.5C 1013.66,975.818 1013.5,968.151 1013,960.5C 1011.3,959.594 1009.47,959.261 1007.5,959.5C 1007.5,911.5 1007.5,863.5 1007.5,815.5C 1008.5,815.5 1009.5,815.5 1010.5,815.5C 1010.5,788.833 1010.5,762.167 1010.5,735.5C 1009.5,735.5 1008.5,735.5 1007.5,735.5C 1007.5,511.5 1007.5,287.5 1007.5,63.5C 1009.5,63.5 1011.5,63.5 1013.5,63.5C 1011.21,55.8681 1010.21,47.8681 1010.5,39.5C 1009.5,39.5 1008.5,39.5 1007.5,39.5C 1007.83,31.4723 1007.5,23.4723 1006.5,15.5C 1005.51,20.7921 1005.17,26.1254 1005.5,31.5C 1004.5,31.5 1003.5,31.5 1002.5,31.5C 1002.5,26.1667 1002.5,20.8333 1002.5,15.5C 1001.5,15.5 1000.5,15.5 999.5,15.5C 999.5,12.8333 999.5,10.1667 999.5,7.5C 1002.17,7.5 1004.83,7.5 1007.5,7.5C 1007.5,6.5 1007.5,5.5 1007.5,4.5C 1010.52,4.66463 1013.52,4.49796 1016.5,4C 1017.58,2.67028 1018.25,1.17028 1018.5,-0.5 Z"/></g>
<g><path style="opacity:1" fill="#151a18" d="M 578.5,151.5 C 569.602,153.379 560.602,155.379 551.5,157.5C 572.293,163.948 593.293,169.615 614.5,174.5C 610.381,157.254 599.381,149.587 581.5,151.5C 581.768,148.881 581.435,146.381 580.5,144C 592.09,144.418 603.757,144.251 615.5,143.5C 615.5,146.167 615.5,148.833 615.5,151.5C 618.167,151.5 620.833,151.5 623.5,151.5C 623.941,157.805 623.274,163.971 621.5,170C 623.362,176.953 624.029,184.119 623.5,191.5C 639.5,191.5 655.5,191.5 671.5,191.5C 671.5,196.833 671.5,202.167 671.5,207.5C 676.833,207.5 682.167,207.5 687.5,207.5C 687.5,202.167 687.5,196.833 687.5,191.5C 692.833,191.5 698.167,191.5 703.5,191.5C 703.5,199.5 703.5,207.5 703.5,215.5C 706.167,215.5 708.833,215.5 711.5,215.5C 711.5,217.167 711.5,218.833 711.5,220.5C 714.167,220.5 716.833,220.5 719.5,220.5C 719.67,221.822 719.337,222.989 718.5,224C 720.5,224 722.5,224 724.5,224C 723.333,224.5 722.5,225.333 722,226.5C 720.493,225.465 718.993,225.632 717.5,227C 720.034,227.516 722.2,228.683 724,230.5C 724.47,231.577 724.303,232.577 723.5,233.5C 719.975,230.569 715.975,228.402 711.5,227C 650.55,212.596 589.884,197.263 529.5,181C 515.99,179.507 507.49,185.34 504,198.5C 491.095,261.933 477.762,325.267 464,388.5C 461.18,446.674 488.18,482.007 545,494.5C 546.03,494.836 546.53,495.503 546.5,496.5C 542.115,495.945 537.782,494.779 533.5,493C 530.534,492.105 527.867,492.605 525.5,494.5C 525.709,495.086 526.043,495.586 526.5,496C 523.622,499.896 519.955,502.563 515.5,504C 514.707,505.085 514.04,506.252 513.5,507.5C 516.045,512.302 519.045,516.802 522.5,521C 526.475,523.535 530.642,525.702 535,527.5C 537.64,525.9 539.807,526.234 541.5,528.5C 541.029,530.288 540.696,532.122 540.5,534C 543.349,541.381 545.016,549.047 545.5,557C 543.658,569.529 539.991,581.529 534.5,593C 534.57,593.765 534.903,594.265 535.5,594.5C 537.913,596.051 540.579,596.717 543.5,596.5C 543.5,597.5 543.5,598.5 543.5,599.5C 540.351,599.789 537.351,599.289 534.5,598C 538.226,596.957 537.893,596.457 533.5,596.5C 533.649,597.552 533.483,598.552 533,599.5C 532.781,598.062 532.281,596.729 531.5,595.5C 530.41,596.391 530.41,597.391 531.5,598.5C 529.604,599.466 527.604,599.799 525.5,599.5C 525.5,591.5 525.5,583.5 525.5,575.5C 524.5,575.5 523.5,575.5 522.5,575.5C 522.5,583.5 522.5,591.5 522.5,599.5C 521.5,599.5 520.5,599.5 519.5,599.5C 519.5,602.167 519.5,604.833 519.5,607.5C 524.833,607.5 530.167,607.5 535.5,607.5C 535.012,610.711 535.679,613.544 537.5,616C 534.714,618.021 535.047,619.521 538.5,620.5C 537.758,621.287 536.925,621.953 536,622.5C 530.554,621.194 525.054,621.194 519.5,622.5C 520.729,623.281 522.062,623.781 523.5,624C 520.358,626.545 516.692,628.045 512.5,628.5C 511.05,627.15 510.383,625.484 510.5,623.5C 505.5,623.5 500.5,623.5 495.5,623.5C 495.5,628.167 495.5,632.833 495.5,637.5C 492.833,637.5 490.167,637.5 487.5,637.5C 487.33,638.822 487.663,639.989 488.5,641C 487.258,641.311 486.258,640.811 485.5,639.5C 485.676,642.079 484.343,644.079 481.5,645.5C 480.594,643.614 479.594,641.78 478.5,640C 474.752,639.613 471.085,640.113 467.5,641.5C 460.934,639.846 454.267,639.179 447.5,639.5C 447.5,643.167 447.5,646.833 447.5,650.5C 444.833,650.5 442.167,650.5 439.5,650.5C 439.5,651.5 439.5,652.5 439.5,653.5C 442.247,653.187 444.914,653.52 447.5,654.5C 448.326,655.451 448.492,656.451 448,657.5C 442.696,655.692 437.196,655.025 431.5,655.5C 431.5,658.167 431.5,660.833 431.5,663.5C 430.5,663.5 429.5,663.5 428.5,663.5C 428.5,660.833 428.5,658.167 428.5,655.5C 427.5,655.5 426.5,655.5 425.5,655.5C 425.5,658.167 425.5,660.833 425.5,663.5C 424.448,663.351 423.448,663.517 422.5,664C 422.726,666.269 423.059,668.769 423.5,671.5C 425.833,671.5 428.167,671.5 430.5,671.5C 430.958,676.963 431.292,682.297 431.5,687.5C 435.235,689.725 438.569,692.559 441.5,696C 440.833,696.333 440.167,696.667 439.5,697C 442.505,698.67 444.671,700.836 446,703.5C 443.915,700.856 441.415,700.189 438.5,701.5C 417.889,685.157 412.723,664.823 423,640.5C 427.089,634.407 431.922,628.907 437.5,624C 460.007,608.914 482.34,593.58 504.5,578C 516.641,568.611 519.474,557.111 513,543.5C 506.861,537.936 499.694,536.103 491.5,538C 461.139,556.178 430.806,574.345 400.5,592.5C 400.345,589.391 399.678,586.391 398.5,583.5C 395.002,588.916 390.002,590.916 383.5,589.5C 383.5,588.5 383.5,587.5 383.5,586.5C 386.518,586.665 389.518,586.498 392.5,586C 395.332,584.092 394.999,583.259 391.5,583.5C 391.5,582.5 391.5,581.5 391.5,580.5C 394.167,580.5 396.833,580.5 399.5,580.5C 399.5,578.833 399.5,577.167 399.5,575.5C 407.447,574.34 415.447,573.507 423.5,573C 424.833,572 426.167,571 427.5,570C 423.828,567.87 419.828,567.037 415.5,567.5C 415.5,564.833 415.5,562.167 415.5,559.5C 407.5,559.5 399.5,559.5 391.5,559.5C 391.5,561.167 391.5,562.833 391.5,564.5C 388.833,564.5 386.167,564.5 383.5,564.5C 383.5,565.5 383.5,566.5 383.5,567.5C 380.833,567.5 378.167,567.5 375.5,567.5C 375.019,562.913 375.019,558.746 375.5,555C 374.874,554.25 374.374,553.416 374,552.5C 371.709,554.162 369.209,556.328 366.5,559C 367.444,561.719 367.777,564.552 367.5,567.5C 362.167,567.5 356.833,567.5 351.5,567.5C 351.5,564.833 351.5,562.167 351.5,559.5C 348.833,559.5 346.167,559.5 343.5,559.5C 343.5,554.167 343.5,548.833 343.5,543.5C 340.833,543.5 338.167,543.5 335.5,543.5C 335.5,540.833 335.5,538.167 335.5,535.5C 338.448,535.223 341.281,535.556 344,536.5C 344.333,535.5 344.667,534.5 345,533.5C 346.145,534.684 347.312,534.684 348.5,533.5C 354.801,539.97 360.967,546.637 367,553.5C 367.167,553.167 367.333,552.833 367.5,552.5C 357.049,540.212 348.882,526.545 343,511.5C 317.333,434.456 290,358.123 261,282.5C 260.282,281.549 259.449,281.383 258.5,282C 246.104,290.726 233.437,299.06 220.5,307C 213.76,311.07 207.593,315.904 202,321.5C 198.644,327.757 197.644,334.424 199,341.5C 201.409,347.324 204.576,352.657 208.5,357.5C 207.518,358.141 206.518,358.807 205.5,359.5C 204.184,356.972 203.017,356.972 202,359.5C 198.712,359.342 195.212,359.342 191.5,359.5C 191.5,356.833 191.5,354.167 191.5,351.5C 188.833,351.5 186.167,351.5 183.5,351.5C 183.5,346.167 183.5,340.833 183.5,335.5C 184.5,335.5 185.5,335.5 186.5,335.5C 186.5,330.167 186.5,324.833 186.5,319.5C 189.667,318.972 192.834,318.305 196,317.5C 198.748,318.281 201.248,318.115 203.5,317C 202.167,316.333 202.167,315.667 203.5,315C 201.387,314.128 200.054,312.628 199.5,310.5C 201.695,306.953 204.695,304.62 208.5,303.5C 208.38,305.199 208.046,306.865 207.5,308.5C 207.556,309.737 208.056,310.737 209,311.5C 211.086,309.606 213.253,307.773 215.5,306C 214.5,305.667 213.5,305.333 212.5,305C 215.694,302.228 218.694,299.228 221.5,296C 222.5,295.333 223.5,295.333 224.5,296C 223.446,297.388 223.28,298.888 224,300.5C 226.889,298.366 230.056,296.699 233.5,295.5C 234.262,294.372 234.929,293.205 235.5,292C 238.003,291.871 240.003,290.871 241.5,289C 233.132,289.259 232.298,287.092 239,282.5C 239.333,283.5 239.667,284.5 240,285.5C 246.705,281.367 246.538,279.367 239.5,279.5C 239.5,276.833 239.5,274.167 239.5,271.5C 244.833,271.5 250.167,271.5 255.5,271.5C 255.5,270.5 255.5,269.5 255.5,268.5C 258.167,268.5 260.833,268.5 263.5,268.5C 263.5,269.5 263.5,270.5 263.5,271.5C 266.167,271.5 268.833,271.5 271.5,271.5C 271.5,266.167 271.5,260.833 271.5,255.5C 273.5,255.5 275.5,255.5 277.5,255.5C 277.172,250.125 277.505,244.792 278.5,239.5C 278.976,242.119 280.309,244.119 282.5,245.5C 283.799,244.91 284.632,243.91 285,242.5C 285.175,238.789 285.675,235.122 286.5,231.5C 287.167,232.5 287.833,233.5 288.5,234.5C 292.769,230.863 297.769,229.197 303.5,229.5C 303.5,228.5 303.5,227.5 303.5,226.5C 307.308,226.837 310.974,226.337 314.5,225C 313.552,224.517 312.552,224.351 311.5,224.5C 311.5,222.5 311.5,220.5 311.5,218.5C 314.167,218.5 316.833,218.5 319.5,218.5C 319.5,214.833 319.5,211.167 319.5,207.5C 324.5,207.5 329.5,207.5 334.5,207.5C 334.33,208.822 334.663,209.989 335.5,211C 338.516,211.664 341.349,211.164 344,209.5C 345.473,209.903 346.806,210.57 348,211.5C 348.456,210.256 347.956,209.423 346.5,209C 347.167,208.667 347.833,208.333 348.5,208C 346.5,208 344.5,208 342.5,208C 345.002,205.788 348.002,204.955 351.5,205.5C 351.5,204.5 351.5,203.5 351.5,202.5C 354.884,202.34 358.217,202.673 361.5,203.5C 363.545,204.211 364.878,205.544 365.5,207.5C 363.436,207.687 361.436,208.187 359.5,209C 338.349,219.91 317.016,230.243 295.5,240C 287.914,246.09 285.081,253.923 287,263.5C 316.13,345.221 345.463,426.887 375,508.5C 384.457,526.624 398.457,539.957 417,548.5C 421.723,546.437 425.889,543.604 429.5,540C 408.203,518.905 395.87,493.405 392.5,463.5C 391.149,443.956 389.149,424.623 386.5,405.5C 381.073,346.415 374.74,287.415 367.5,228.5C 368.376,228.631 369.043,228.298 369.5,227.5C 368.704,220.883 368.204,214.217 368,207.5C 367.5,206.5 367,205.5 366.5,204.5C 367.165,202.899 367.499,201.399 367.5,200C 364.854,199.503 362.187,199.336 359.5,199.5C 359.5,198.5 359.5,197.5 359.5,196.5C 362.167,196.5 364.833,196.5 367.5,196.5C 367.5,194.833 367.5,193.167 367.5,191.5C 375.5,191.5 383.5,191.5 391.5,191.5C 391.703,189.362 392.703,187.695 394.5,186.5C 392.244,185.579 391.244,183.912 391.5,181.5C 394.167,181.5 396.833,181.5 399.5,181.5C 399.5,179.5 399.5,177.5 399.5,175.5C 404.833,175.5 410.167,175.5 415.5,175.5C 415.5,170.167 415.5,164.833 415.5,159.5C 420.833,159.5 426.167,159.5 431.5,159.5C 431.5,163.167 431.5,166.833 431.5,170.5C 436.833,170.5 442.167,170.5 447.5,170.5C 447.5,169.5 447.5,168.5 447.5,167.5C 455.5,167.5 463.5,167.5 471.5,167.5C 471.5,165.833 471.5,164.167 471.5,162.5C 479.5,162.5 487.5,162.5 495.5,162.5C 495.5,161.5 495.5,160.5 495.5,159.5C 500.833,159.5 506.167,159.5 511.5,159.5C 511.5,163.833 511.5,168.167 511.5,172.5C 516.833,171.833 522.167,171.167 527.5,170.5C 527.5,166.833 527.5,163.167 527.5,159.5C 532.833,159.5 538.167,159.5 543.5,159.5C 543.5,154.167 543.5,148.833 543.5,143.5C 548.5,143.5 553.5,143.5 558.5,143.5C 558.5,144.5 558.5,145.5 558.5,146.5C 564.167,146.5 569.833,146.5 575.5,146.5C 575.5,145.5 575.5,144.5 575.5,143.5C 576.552,143.351 577.552,143.517 578.5,144C 577.186,146.605 577.186,149.105 578.5,151.5 Z"/></g>
<g><path style="opacity:1" fill="#f3f5f5" d="M 578.5,151.5 C 579.5,151.5 580.5,151.5 581.5,151.5C 599.381,149.587 610.381,157.254 614.5,174.5C 593.293,169.615 572.293,163.948 551.5,157.5C 560.602,155.379 569.602,153.379 578.5,151.5 Z"/></g>
<g><path style="opacity:1" fill="#fbfbfb" d="M 474.5,175.5 C 477.187,175.336 479.854,175.503 482.5,176C 479.681,179.805 477.514,183.971 476,188.5C 463.746,249.037 450.746,309.37 437,369.5C 425.493,419.079 437.993,461.246 474.5,496C 479.991,500.246 485.658,504.246 491.5,508C 479.713,510.394 469.047,515.227 459.5,522.5C 440.718,509.633 428.884,491.967 424,469.5C 414.961,382.109 405.461,294.776 395.5,207.5C 394.938,196.445 399.605,188.611 409.5,184C 431.231,180.68 452.898,177.847 474.5,175.5 Z"/></g>
<g><path style="opacity:1" fill="#fdfdfd" d="M 723.5,233.5 C 729.195,239.756 731.362,247.09 730,255.5C 718.068,306.465 706.235,357.465 694.5,408.5C 686.559,437.869 670.892,462.369 647.5,482C 630.91,493.14 612.577,498.974 592.5,499.5C 583.515,498.734 574.515,498.401 565.5,498.5C 559.273,497.253 552.94,496.586 546.5,496.5C 546.53,495.503 546.03,494.836 545,494.5C 488.18,482.007 461.18,446.674 464,388.5C 477.762,325.267 491.095,261.933 504,198.5C 507.49,185.34 515.99,179.507 529.5,181C 589.884,197.263 650.55,212.596 711.5,227C 715.975,228.402 719.975,230.569 723.5,233.5 Z"/></g>
<g><path style="opacity:1" fill="#fbfbfb" d="M 365.5,207.5 C 365.92,214.526 366.587,221.526 367.5,228.5C 374.74,287.415 381.073,346.415 386.5,405.5C 386.131,411.513 385.964,417.513 386,423.5C 386.333,421.5 386.667,419.5 387,417.5C 387.772,421.89 387.606,426.223 386.5,430.5C 389.65,437.529 390.316,444.862 388.5,452.5C 389.096,456.586 390.429,460.252 392.5,463.5C 395.87,493.405 408.203,518.905 429.5,540C 425.889,543.604 421.723,546.437 417,548.5C 398.457,539.957 384.457,526.624 375,508.5C 345.463,426.887 316.13,345.221 287,263.5C 285.081,253.923 287.914,246.09 295.5,240C 317.016,230.243 338.349,219.91 359.5,209C 361.436,208.187 363.436,207.687 365.5,207.5 Z"/></g>
<g><path style="opacity:1" fill="#fbfbfb" d="M 348.5,533.5 C 301.423,475.097 254.756,416.43 208.5,357.5C 204.576,352.657 201.409,347.324 199,341.5C 197.644,334.424 198.644,327.757 202,321.5C 207.593,315.904 213.76,311.07 220.5,307C 233.437,299.06 246.104,290.726 258.5,282C 259.449,281.383 260.282,281.549 261,282.5C 290,358.123 317.333,434.456 343,511.5C 348.882,526.545 357.049,540.212 367.5,552.5C 367.333,552.833 367.167,553.167 367,553.5C 360.967,546.637 354.801,539.97 348.5,533.5 Z"/></g>
<g><path style="opacity:1" fill="#f8f9f9" d="M 795.5,434.5 C 790.821,454.028 781.821,471.195 768.5,486C 757.766,485.354 747.766,487.521 738.5,492.5C 728.467,497.358 718.467,501.858 708.5,506C 729.294,481.537 750.461,457.37 772,433.5C 776.818,422.655 773.318,417.489 761.5,418C 751.275,428.962 740.942,439.795 730.5,450.5C 729.319,448.933 727.653,448.099 725.5,448C 729.278,434.44 731.778,420.607 733,406.5C 733.333,406.833 733.667,407.167 734,407.5C 734.483,406.552 734.649,405.552 734.5,404.5C 744.858,399.66 755.858,396.826 767.5,396C 778.835,395.693 790.169,395.86 801.5,396.5C 800.48,409.33 798.48,421.996 795.5,434.5 Z"/></g>
<g><path style="opacity:1" fill="#e4e4e3" d="M 734.5,404.5 C 734.649,405.552 734.483,406.552 734,407.5C 733.667,407.167 733.333,406.833 733,406.5C 731.778,420.607 729.278,434.44 725.5,448C 727.653,448.099 729.319,448.933 730.5,450.5C 711.169,471.164 691.503,491.497 671.5,511.5C 670.316,510.312 670.316,509.145 671.5,508C 671,507.833 670.5,507.667 670,507.5C 662.243,511.214 654.576,514.881 647,518.5C 646.329,517.748 645.496,517.414 644.5,517.5C 671.038,503.791 690.204,483.125 702,455.5C 707.334,442.499 711.667,429.166 715,415.5C 721.149,411.176 727.649,407.51 734.5,404.5 Z"/></g>
<g><path style="opacity:1" fill="#151a18" d="M 795.5,434.5 C 798.48,421.996 800.48,409.33 801.5,396.5C 790.169,395.86 778.835,395.693 767.5,396C 755.858,396.826 744.858,399.66 734.5,404.5C 727.649,407.51 721.149,411.176 715,415.5C 711.667,429.166 707.334,442.499 702,455.5C 690.204,483.125 671.038,503.791 644.5,517.5C 631.005,522.941 617.005,526.441 602.5,528C 583.17,528.5 563.836,528.667 544.5,528.5C 551.988,527.4 559.654,526.567 567.5,526C 568.416,525.626 569.25,525.126 570,524.5C 574.748,525.635 579.581,525.802 584.5,525C 586.563,523.428 587.229,521.595 586.5,519.5C 589.21,518.086 590.21,516.086 589.5,513.5C 590.325,512.614 591.325,512.281 592.5,512.5C 592.33,511.178 592.663,510.011 593.5,509C 592.833,508 592.167,507 591.5,506C 583.544,504.204 575.711,502.037 568,499.5C 566.841,500.566 566.008,500.233 565.5,498.5C 574.515,498.401 583.515,498.734 592.5,499.5C 612.577,498.974 630.91,493.14 647.5,482C 670.892,462.369 686.559,437.869 694.5,408.5C 696.255,408.798 697.588,410.298 698.5,413C 701.715,413.502 703.381,412.002 703.5,408.5C 703.182,407.353 702.516,406.519 701.5,406C 702.167,405.667 702.833,405.333 703.5,405C 703.146,403.374 703.146,401.541 703.5,399.5C 714.167,398.833 724.833,398.167 735.5,397.5C 735.5,395.5 735.5,393.5 735.5,391.5C 738.167,391.5 740.833,391.5 743.5,391.5C 743.5,390.5 743.5,389.5 743.5,388.5C 751.432,387.176 759.432,386.509 767.5,386.5C 767.5,385.5 767.5,384.5 767.5,383.5C 770.167,383.5 772.833,383.5 775.5,383.5C 775.5,384.5 775.5,385.5 775.5,386.5C 783.5,386.5 791.5,386.5 799.5,386.5C 799.5,385.5 799.5,384.5 799.5,383.5C 804.833,383.5 810.167,383.5 815.5,383.5C 815.5,386.167 815.5,388.833 815.5,391.5C 817.167,391.5 818.833,391.5 820.5,391.5C 820.645,396.084 819.645,400.251 817.5,404C 817.97,407.688 817.97,411.521 817.5,415.5C 813.5,415.5 809.5,415.5 805.5,415.5C 805.307,411.551 804.807,411.551 804,415.5C 802.215,420.686 801.382,426.02 801.5,431.5C 806.167,431.5 810.833,431.5 815.5,431.5C 815.5,436.833 815.5,442.167 815.5,447.5C 810.156,447.666 804.823,447.499 799.5,447C 796.919,444.84 796.919,442.674 799.5,440.5C 799.062,439.494 798.396,439.494 797.5,440.5C 796.831,438.369 796.165,436.369 795.5,434.5 Z"/></g>
<g><path style="opacity:1" fill="#d2d4d7" d="M 386.5,405.5 C 389.149,424.623 391.149,443.956 392.5,463.5C 390.429,460.252 389.096,456.586 388.5,452.5C 390.316,444.862 389.65,437.529 386.5,430.5C 387.606,426.223 387.772,421.89 387,417.5C 386.667,419.5 386.333,421.5 386,423.5C 385.964,417.513 386.131,411.513 386.5,405.5 Z"/></g>
<g><path style="opacity:1" fill="#191a1a" d="M 243.5,473.5 C 246.187,473.336 248.854,473.503 251.5,474C 255.557,475.947 257.057,479.114 256,483.5C 253.326,485.871 250.159,487.037 246.5,487C 244.594,488.856 243.76,491.023 244,493.5C 244.333,493.167 244.667,492.833 245,492.5C 245.333,494.5 245.667,496.5 246,498.5C 254.658,503.464 256.991,510.798 253,520.5C 248.443,524.607 244.276,524.44 240.5,520C 238.5,519.333 236.5,518.667 234.5,518C 234.833,517.667 235.167,517.333 235.5,517C 232.833,516.333 230.167,516.333 227.5,517C 227.833,517.333 228.167,517.667 228.5,518C 222.796,528.07 217.463,527.904 212.5,517.5C 212.167,518.167 211.833,518.833 211.5,519.5C 210.5,519 209.5,518.5 208.5,518C 210.087,517.138 211.754,516.471 213.5,516C 211.775,515.135 210.108,514.469 208.5,514C 208.957,513.586 209.291,513.086 209.5,512.5C 208.408,510.817 207.741,508.984 207.5,507C 209.109,505.875 209.776,503.708 209.5,500.5C 209.333,498.833 209.167,497.167 209,495.5C 208.667,496.5 208.333,497.5 208,498.5C 207.516,496.087 207.85,493.754 209,491.5C 209.317,493.301 209.984,493.634 211,492.5C 212.276,489 214.109,485.833 216.5,483C 215.137,480.871 215.471,480.371 217.5,481.5C 217.833,480.833 218.167,480.167 218.5,479.5C 227.876,481.592 236.209,479.592 243.5,473.5 Z"/></g>
<g><path style="opacity:1" fill="#1c1c1c" d="M 546.5,496.5 C 552.94,496.586 559.273,497.253 565.5,498.5C 566.008,500.233 566.841,500.566 568,499.5C 575.711,502.037 583.544,504.204 591.5,506C 592.167,507 592.833,508 593.5,509C 592.663,510.011 592.33,511.178 592.5,512.5C 591.325,512.281 590.325,512.614 589.5,513.5C 590.21,516.086 589.21,518.086 586.5,519.5C 587.229,521.595 586.563,523.428 584.5,525C 579.581,525.802 574.748,525.635 570,524.5C 569.25,525.126 568.416,525.626 567.5,526C 559.654,526.567 551.988,527.4 544.5,528.5C 543.5,528.5 542.5,528.5 541.5,528.5C 539.807,526.234 537.64,525.9 535,527.5C 530.642,525.702 526.475,523.535 522.5,521C 519.045,516.802 516.045,512.302 513.5,507.5C 514.04,506.252 514.707,505.085 515.5,504C 519.955,502.563 523.622,499.896 526.5,496C 526.043,495.586 525.709,495.086 525.5,494.5C 527.867,492.605 530.534,492.105 533.5,493C 537.782,494.779 542.115,495.945 546.5,496.5 Z"/></g>
<g><path style="opacity:1" fill="#fbfbfb" d="M 671.5,511.5 C 658.543,525.627 644.21,538.127 628.5,549C 607.626,560.27 586.626,571.27 565.5,582C 555.137,585.504 545.137,589.67 535.5,594.5C 534.903,594.265 534.57,593.765 534.5,593C 539.991,581.529 543.658,569.529 545.5,557C 545.016,549.047 543.349,541.381 540.5,534C 540.696,532.122 541.029,530.288 541.5,528.5C 542.5,528.5 543.5,528.5 544.5,528.5C 563.836,528.667 583.17,528.5 602.5,528C 617.005,526.441 631.005,522.941 644.5,517.5C 645.496,517.414 646.329,517.748 647,518.5C 654.576,514.881 662.243,511.214 670,507.5C 670.5,507.667 671,507.833 671.5,508C 670.316,509.145 670.316,510.312 671.5,511.5 Z"/></g>
<g><path style="opacity:1" fill="#fafbfa" d="M 764.5,515.5 C 774.59,519.352 778.09,526.685 775,537.5C 772.925,541.579 770.092,545.079 766.5,548C 730.535,573.146 694.202,597.646 657.5,621.5C 628.539,639.149 598.539,654.982 567.5,669C 551.876,674.984 535.876,679.984 519.5,684C 502.002,686.578 484.669,685.912 467.5,682C 457.644,678.643 450.978,672.143 447.5,662.5C 502.01,642.421 555.343,619.254 607.5,593C 656.194,565.486 705.86,539.82 756.5,516C 759.146,515.503 761.813,515.336 764.5,515.5 Z"/></g>
<g><path style="opacity:1" fill="#fbfbfb" d="M 438.5,701.5 C 450.011,709.953 463.011,714.786 477.5,716C 507.916,718.05 537.249,713.383 565.5,702C 606.931,685.623 645.931,665.123 682.5,640.5C 699.619,629.221 716.619,617.721 733.5,606C 733.833,605.833 734.167,605.667 734.5,605.5C 735.521,606.002 735.688,606.668 735,607.5C 685.333,655.833 635.667,704.167 586,752.5C 579.584,762.818 572.084,772.318 563.5,781C 557.779,784.527 551.779,787.527 545.5,790C 523.556,797.134 501.889,805.134 480.5,814C 448.189,828.31 423.522,850.976 406.5,882C 399.586,881.218 393.253,878.718 387.5,874.5C 395.485,862.005 405.152,850.838 416.5,841C 427.444,832.057 438.944,823.89 451,816.5C 454.212,805.374 450.045,800.874 438.5,803C 422.4,811.772 407.4,822.105 393.5,834C 383.893,843.931 374.727,854.098 366,864.5C 351.476,856.135 337.643,846.802 324.5,836.5C 324.351,835.448 324.517,834.448 325,833.5C 335.667,822.833 346.333,812.167 357,801.5C 361.592,790.092 357.759,784.925 345.5,786C 332.364,797.801 319.531,809.968 307,822.5C 299.263,815.818 292.097,808.651 285.5,801C 295.092,793.286 304.592,785.453 314,777.5C 318.676,766.165 314.843,760.999 302.5,762C 296.103,766.727 289.436,771.06 282.5,775C 281.668,775.688 281.002,775.521 280.5,774.5C 288.368,762.1 295.201,749.1 301,735.5C 309.527,710.251 317.861,684.918 326,659.5C 332.393,642.778 342.893,629.278 357.5,619C 370.694,610.571 384.028,602.405 397.5,594.5C 398.5,593.833 399.5,593.167 400.5,592.5C 430.806,574.345 461.139,556.178 491.5,538C 499.694,536.103 506.861,537.936 513,543.5C 519.474,557.111 516.641,568.611 504.5,578C 482.34,593.58 460.007,608.914 437.5,624C 431.922,628.907 427.089,634.407 423,640.5C 412.723,664.823 417.889,685.157 438.5,701.5 Z"/></g>
<g><path style="opacity:1" fill="#191a1a" d="M 331.5,607.5 C 328.376,607.943 326.043,609.61 324.5,612.5C 323.271,613.281 321.938,613.781 320.5,614C 319.671,615.816 318.837,617.649 318,619.5C 316.16,618.167 315.66,618.334 316.5,620C 314.919,620.707 313.419,621.54 312,622.5C 309.666,626.89 309.5,631.223 311.5,635.5C 310.091,635.654 308.424,635.821 306.5,636C 308.901,636.805 308.734,637.638 306,638.5C 303.293,643.545 302.459,648.545 303.5,653.5C 302.211,653.832 300.545,654.166 298.5,654.5C 298.666,659.179 298.499,663.845 298,668.5C 295.622,672.86 293.289,677.193 291,681.5C 290.96,683.724 290.794,685.724 290.5,687.5C 288.86,690.488 288.026,693.821 288,697.5C 287.097,698.701 285.931,699.535 284.5,700C 286.158,700.725 286.658,701.892 286,703.5C 284.815,701.156 282.982,700.323 280.5,701C 282.901,701.805 282.734,702.638 280,703.5C 279.356,708.128 277.19,711.795 273.5,714.5C 270.316,713.784 268.816,711.784 269,708.5C 262.945,704.664 258.445,706.331 255.5,713.5C 252.605,715.702 249.772,715.369 247,712.5C 247.316,708.863 245.982,706.196 243,704.5C 241.909,708.609 239.409,710.776 235.5,711C 234.382,709.926 233.382,708.76 232.5,707.5C 230.378,710.124 228.045,712.624 225.5,715C 222.653,715.944 220.153,715.444 218,713.5C 215.834,715.121 213.334,715.955 210.5,716C 207.793,719.721 204.293,722.221 200,723.5C 197.256,723.588 196.09,722.255 196.5,719.5C 197.722,716.41 198.889,713.41 200,710.5C 197.984,712.684 195.817,714.684 193.5,716.5C 189.215,714.61 188.381,711.61 191,707.5C 194.167,703 197.333,698.5 200.5,694C 194.92,694.937 192.754,692.77 194,687.5C 204.008,674.497 215.008,662.497 227,651.5C 228.665,648.294 230.332,644.627 232,640.5C 232.75,639.874 233.584,639.374 234.5,639C 233.109,637.98 231.609,637.147 230,636.5C 229.333,633.833 229.333,631.167 230,628.5C 230.925,627.953 231.758,627.287 232.5,626.5C 231.359,625.575 231.359,624.741 232.5,624C 232,623.5 231.5,623 231,622.5C 228.333,623.833 225.667,623.833 223,622.5C 222.333,618.339 222.833,614.339 224.5,610.5C 220.761,610.189 217.261,609.189 214,607.5C 201.416,609.593 199.25,605.76 207.5,596C 206.924,594.286 205.757,593.119 204,592.5C 203.333,590.5 203.333,588.5 204,586.5C 206.821,584.678 209.321,582.511 211.5,580C 210.551,579.383 209.718,579.549 209,580.5C 207.56,578.954 205.727,578.121 203.5,578C 202.833,577 202.167,576 201.5,575C 200.87,570.274 201.537,565.607 203.5,561C 202.47,558.602 202.804,556.269 204.5,554C 211.628,552.801 218.628,551.135 225.5,549C 230.524,548.335 235.524,548.502 240.5,549.5C 242.853,548.002 245.353,546.669 248,545.5C 254.028,547.158 260.195,548.491 266.5,549.5C 270.531,550.178 274.698,550.178 279,549.5C 281.999,551.044 285.166,552.211 288.5,553C 295.62,554.521 302.62,555.521 309.5,556C 310.204,559.185 310.537,562.351 310.5,565.5C 312.559,566.567 314.392,567.9 316,569.5C 316.974,567.122 317.641,567.456 318,570.5C 318.974,568.122 319.641,568.456 320,571.5C 331.336,578.914 337.336,588.914 338,601.5C 336.676,602.88 335.343,603.214 334,602.5C 333.167,604 332,605.167 330.5,606C 331.056,606.383 331.389,606.883 331.5,607.5 Z"/></g>
<g><path style="opacity:1" fill="#191a1a" d="M 789.5,602.5 C 796.663,601.331 801.829,603.998 805,610.5C 806.09,614.895 806.257,619.228 805.5,623.5C 812.508,623.334 819.508,623.5 826.5,624C 827.591,626.064 827.758,628.231 827,630.5C 818.902,634.149 810.402,636.149 801.5,636.5C 801.574,639.969 801.241,643.469 800.5,647C 795.668,647.34 791.001,646.507 786.5,644.5C 784.534,644.895 782.534,645.228 780.5,645.5C 776.613,643.785 773.113,641.452 770,638.5C 769.667,638.833 769.333,639.167 769,639.5C 762.285,633.717 762.451,628.717 769.5,624.5C 768.833,622.833 768.167,621.167 767.5,619.5C 769.215,616.517 770.049,613.517 770,610.5C 772.027,608.228 774.194,606.061 776.5,604C 781.019,603.825 785.353,603.325 789.5,602.5 Z"/></g>
<g><path style="opacity:1" fill="#151a17" d="M 738.5,492.5 C 741.25,493.191 743.917,494.191 746.5,495.5C 747.696,495.154 747.696,494.654 746.5,494C 748.669,495.114 750.502,494.614 752,492.5C 752.692,493.025 753.192,493.692 753.5,494.5C 758.12,495.493 762.786,495.827 767.5,495.5C 767.5,499.167 767.5,502.833 767.5,506.5C 772.833,507.167 778.167,507.833 783.5,508.5C 783.5,509.5 783.5,510.5 783.5,511.5C 786.167,511.5 788.833,511.5 791.5,511.5C 791.5,516.833 791.5,522.167 791.5,527.5C 788.833,527.5 786.167,527.5 783.5,527.5C 783.768,524.881 783.435,522.381 782.5,520C 779.458,520.523 776.458,520.356 773.5,519.5C 773.357,517.738 773.691,516.071 774.5,514.5C 774,514.167 773.5,513.833 773,513.5C 771.989,513.892 771.489,514.559 771.5,515.5C 770.5,515 769.5,514.5 768.5,514C 769.833,513.333 769.833,512.667 768.5,512C 766.833,511.333 765.167,511.333 763.5,512C 764.833,512.333 766.167,512.667 767.5,513C 765.5,513.333 763.5,513.667 761.5,514C 763.506,514.083 764.506,514.583 764.5,515.5C 761.813,515.336 759.146,515.503 756.5,516C 705.86,539.82 656.194,565.486 607.5,593C 555.343,619.254 502.01,642.421 447.5,662.5C 450.978,672.143 457.644,678.643 467.5,682C 484.669,685.912 502.002,686.578 519.5,684C 535.876,679.984 551.876,674.984 567.5,669C 598.539,654.982 628.539,639.149 657.5,621.5C 658.239,621.369 658.906,621.536 659.5,622C 658.304,622.654 658.304,623.154 659.5,623.5C 662.141,622.29 664.807,622.29 667.5,623.5C 668.647,623.182 669.481,622.516 670,621.5C 675.536,623.425 681.369,624.092 687.5,623.5C 687.988,626.711 687.321,629.544 685.5,632C 686.167,633 686.833,634 687.5,635C 685.074,636.145 682.741,637.478 680.5,639C 681.416,639.278 682.082,639.778 682.5,640.5C 645.931,665.123 606.931,685.623 565.5,702C 537.249,713.383 507.916,718.05 477.5,716C 463.011,714.786 450.011,709.953 438.5,701.5C 441.415,700.189 443.915,700.856 446,703.5C 444.671,700.836 442.505,698.67 439.5,697C 440.167,696.667 440.833,696.333 441.5,696C 438.569,692.559 435.235,689.725 431.5,687.5C 431.292,682.297 430.958,676.963 430.5,671.5C 428.167,671.5 425.833,671.5 423.5,671.5C 423.059,668.769 422.726,666.269 422.5,664C 423.448,663.517 424.448,663.351 425.5,663.5C 425.5,660.833 425.5,658.167 425.5,655.5C 426.5,655.5 427.5,655.5 428.5,655.5C 428.5,658.167 428.5,660.833 428.5,663.5C 429.5,663.5 430.5,663.5 431.5,663.5C 431.5,660.833 431.5,658.167 431.5,655.5C 437.196,655.025 442.696,655.692 448,657.5C 448.492,656.451 448.326,655.451 447.5,654.5C 444.914,653.52 442.247,653.187 439.5,653.5C 439.5,652.5 439.5,651.5 439.5,650.5C 442.167,650.5 444.833,650.5 447.5,650.5C 447.5,646.833 447.5,643.167 447.5,639.5C 454.267,639.179 460.934,639.846 467.5,641.5C 471.085,640.113 474.752,639.613 478.5,640C 479.594,641.78 480.594,643.614 481.5,645.5C 484.343,644.079 485.676,642.079 485.5,639.5C 486.258,640.811 487.258,641.311 488.5,641C 487.663,639.989 487.33,638.822 487.5,637.5C 490.167,637.5 492.833,637.5 495.5,637.5C 495.5,632.833 495.5,628.167 495.5,623.5C 500.5,623.5 505.5,623.5 510.5,623.5C 510.383,625.484 511.05,627.15 512.5,628.5C 516.692,628.045 520.358,626.545 523.5,624C 522.062,623.781 520.729,623.281 519.5,622.5C 525.054,621.194 530.554,621.194 536,622.5C 536.925,621.953 537.758,621.287 538.5,620.5C 535.047,619.521 534.714,618.021 537.5,616C 535.679,613.544 535.012,610.711 535.5,607.5C 530.167,607.5 524.833,607.5 519.5,607.5C 519.5,604.833 519.5,602.167 519.5,599.5C 520.5,599.5 521.5,599.5 522.5,599.5C 522.5,591.5 522.5,583.5 522.5,575.5C 523.5,575.5 524.5,575.5 525.5,575.5C 525.5,583.5 525.5,591.5 525.5,599.5C 527.604,599.799 529.604,599.466 531.5,598.5C 530.41,597.391 530.41,596.391 531.5,595.5C 532.281,596.729 532.781,598.062 533,599.5C 533.483,598.552 533.649,597.552 533.5,596.5C 537.893,596.457 538.226,596.957 534.5,598C 537.351,599.289 540.351,599.789 543.5,599.5C 543.5,598.5 543.5,597.5 543.5,596.5C 540.579,596.717 537.913,596.051 535.5,594.5C 545.137,589.67 555.137,585.504 565.5,582C 586.626,571.27 607.626,560.27 628.5,549C 644.21,538.127 658.543,525.627 671.5,511.5C 691.503,491.497 711.169,471.164 730.5,450.5C 740.942,439.795 751.275,428.962 761.5,418C 773.318,417.489 776.818,422.655 772,433.5C 750.461,457.37 729.294,481.537 708.5,506C 718.467,501.858 728.467,497.358 738.5,492.5 Z"/></g>
<g><path style="opacity:1" fill="#191919" d="M 769.5,656.5 C 776.673,654.839 779.173,657.506 777,664.5C 770.865,669.634 765.031,675.134 759.5,681C 761.101,681.273 762.601,681.773 764,682.5C 764.333,684.833 764.667,687.167 765,689.5C 776.205,681.306 787.705,673.472 799.5,666C 804.087,665.201 808.587,665.368 813,666.5C 814.104,672.226 813.104,677.56 810,682.5C 807.333,685.833 804.667,689.167 802,692.5C 794.068,698.428 786.735,705.095 780,712.5C 779.505,714.473 779.338,716.473 779.5,718.5C 783.5,717.833 785.167,719.5 784.5,723.5C 786.467,723.261 788.301,723.594 790,724.5C 790.667,727.167 790.667,729.833 790,732.5C 783.516,743.632 778.016,755.132 773.5,767C 771.559,767.743 769.726,767.576 768,766.5C 767.827,762.459 767.327,758.459 766.5,754.5C 765.155,755.347 764.155,756.513 763.5,758C 758.766,757.75 753.933,758.25 749,759.5C 746.812,759.646 745.479,758.646 745,756.5C 737.153,763.682 729.986,771.515 723.5,780C 713.512,783.966 704.512,789.633 696.5,797C 692.429,798.361 689.095,800.695 686.5,804C 683.975,804.896 681.808,804.396 680,802.5C 679.152,805.38 677.652,807.88 675.5,810C 669.488,811.173 663.488,811.34 657.5,810.5C 655.199,811.857 653.199,813.69 651.5,816C 645.214,818.215 642.381,816.049 643,809.5C 638.255,807.401 636.255,803.734 637,798.5C 636.167,797 635,795.833 633.5,795C 634.624,794.161 635.291,792.994 635.5,791.5C 635.547,788.788 634.547,786.622 632.5,785C 633.333,784.167 634.167,783.333 635,782.5C 634.904,776.024 637.404,771.024 642.5,767.5C 643.451,768.326 644.451,768.492 645.5,768C 651.874,761.294 657.874,754.294 663.5,747C 662.409,744.936 662.242,742.769 663,740.5C 665.284,738.042 666.784,735.542 667.5,733C 665.834,732.003 664.334,730.503 663,728.5C 659.199,732.83 656.366,732.497 654.5,727.5C 655.476,721.216 658.31,715.883 663,711.5C 664.113,710.24 664.28,709.073 663.5,708C 667.226,704.939 670.226,701.272 672.5,697C 671.663,695.989 671.33,694.822 671.5,693.5C 675.899,693.93 678.899,692.097 680.5,688C 682.848,687.654 684.681,686.487 686,684.5C 688.045,681.577 690.212,678.743 692.5,676C 696.951,673.217 701.117,670.05 705,666.5C 707.139,667.769 709.305,667.769 711.5,666.5C 714.078,661.674 717.912,660.341 723,662.5C 725.667,659.833 728.333,659.833 731,662.5C 732.305,659.694 734.472,658.86 737.5,660C 739.276,661.671 739.61,663.504 738.5,665.5C 743.48,665.771 745.98,668.437 746,673.5C 752.752,666.22 760.585,660.553 769.5,656.5 Z"/></g>
<g><path style="opacity:1" fill="#161a18" d="M 397.5,594.5 C 384.028,602.405 370.694,610.571 357.5,619C 342.893,629.278 332.393,642.778 326,659.5C 317.861,684.918 309.527,710.251 301,735.5C 295.201,749.1 288.368,762.1 280.5,774.5C 281.002,775.521 281.668,775.688 282.5,775C 289.436,771.06 296.103,766.727 302.5,762C 314.843,760.999 318.676,766.165 314,777.5C 304.592,785.453 295.092,793.286 285.5,801C 292.097,808.651 299.263,815.818 307,822.5C 319.531,809.968 332.364,797.801 345.5,786C 357.759,784.925 361.592,790.092 357,801.5C 346.333,812.167 335.667,822.833 325,833.5C 324.517,834.448 324.351,835.448 324.5,836.5C 323.279,835.972 322.113,835.305 321,834.5C 320.544,835.744 321.044,836.577 322.5,837C 321.874,837.75 321.374,838.584 321,839.5C 320.667,839.167 320.333,838.833 320,838.5C 319.517,839.448 319.351,840.448 319.5,841.5C 321.5,841.5 323.5,841.5 325.5,841.5C 325.5,843.5 325.5,845.5 325.5,847.5C 318.167,847.5 310.833,847.5 303.5,847.5C 303.5,842.167 303.5,836.833 303.5,831.5C 298.167,831.5 292.833,831.5 287.5,831.5C 287.5,828.833 287.5,826.167 287.5,823.5C 284.833,823.5 282.167,823.5 279.5,823.5C 279.5,818.167 279.5,812.833 279.5,807.5C 277.833,807.5 276.167,807.5 274.5,807.5C 274.5,804.833 274.5,802.167 274.5,799.5C 273.5,799.5 272.5,799.5 271.5,799.5C 271.5,796.833 271.5,794.167 271.5,791.5C 268.833,791.5 266.167,791.5 263.5,791.5C 263.5,783.5 263.5,775.5 263.5,767.5C 266.167,767.5 268.833,767.5 271.5,767.5C 271.5,764.833 271.5,762.167 271.5,759.5C 273.5,759.5 275.5,759.5 277.5,759.5C 277.187,756.753 277.52,754.086 278.5,751.5C 279.386,752.325 279.719,753.325 279.5,754.5C 284.944,755.625 288.444,753.625 290,748.5C 290.667,747.167 291.333,747.167 292,748.5C 292.492,747.451 292.326,746.451 291.5,745.5C 292.025,744.808 292.692,744.308 293.5,744C 292.207,743.51 290.873,743.343 289.5,743.5C 289.5,741.833 289.5,740.167 289.5,738.5C 290.833,738.5 292.167,738.5 293.5,738.5C 293.5,737.5 293.5,736.5 293.5,735.5C 295.262,735.643 296.929,735.309 298.5,734.5C 299.228,731.198 299.395,727.865 299,724.5C 303.957,719.435 303.29,718.435 297,721.5C 295.684,718.312 295.184,714.978 295.5,711.5C 296.5,711.5 297.5,711.5 298.5,711.5C 298.5,706.167 298.5,700.833 298.5,695.5C 297.5,695.5 296.5,695.5 295.5,695.5C 295.773,693.042 294.773,691.375 292.5,690.5C 291.201,691.09 290.368,692.09 290,693.5C 289.82,691.512 289.986,689.512 290.5,687.5C 290.794,685.724 290.96,683.724 291,681.5C 293.289,677.193 295.622,672.86 298,668.5C 298.499,663.845 298.666,659.179 298.5,654.5C 300.545,654.166 302.211,653.832 303.5,653.5C 302.459,648.545 303.293,643.545 306,638.5C 308.734,637.638 308.901,636.805 306.5,636C 308.424,635.821 310.091,635.654 311.5,635.5C 309.5,631.223 309.666,626.89 312,622.5C 313.419,621.54 314.919,620.707 316.5,620C 315.66,618.334 316.16,618.167 318,619.5C 318.837,617.649 319.671,615.816 320.5,614C 321.938,613.781 323.271,613.281 324.5,612.5C 326.043,609.61 328.376,607.943 331.5,607.5C 338.167,607.5 344.833,607.5 351.5,607.5C 351.5,605.5 351.5,603.5 351.5,601.5C 362.167,600.833 362.167,600.167 351.5,599.5C 351.5,596.833 351.5,594.167 351.5,591.5C 356.833,591.5 362.167,591.5 367.5,591.5C 367.5,593.167 367.5,594.833 367.5,596.5C 370.85,596.665 374.183,596.498 377.5,596C 381.754,590.825 386.754,590.325 392.5,594.5C 394.13,592.139 395.797,592.139 397.5,594.5 Z"/></g>
</svg>
